<svg width="32" height="32" viewBox="0 0 32 32" fill="none" xmlns="http://www.w3.org/2000/svg">
<path d="M0 1.06667C0 0.783769 0.112381 0.512458 0.312419 0.312419C0.512458 0.112381 0.783769 0 1.06667 0L4.26667 0C4.5046 6.57312e-05 4.73568 0.0796815 4.92316 0.226186C5.11064 0.372691 5.24375 0.577672 5.30133 0.808533L6.16533 4.26667L30.9333 4.26667C31.09 4.26681 31.2446 4.30145 31.3864 4.36811C31.5281 4.43477 31.6534 4.53183 31.7534 4.65238C31.8534 4.77294 31.9256 4.91403 31.9649 5.06564C32.0042 5.21725 32.0096 5.37565 31.9808 5.5296L28.7808 22.5963C28.735 22.8407 28.6053 23.0615 28.4141 23.2204C28.2228 23.3793 27.982 23.4664 27.7333 23.4667H8.53333C8.28466 23.4664 8.04387 23.3793 7.85261 23.2204C7.66135 23.0615 7.53162 22.8407 7.48587 22.5963L4.288 5.5616L3.43467 2.13333H1.06667C0.783769 2.13333 0.512458 2.02095 0.312419 1.82091C0.112381 1.62088 0 1.34956 0 1.06667ZM6.6176 6.4L9.41867 21.3333H26.848L29.6491 6.4L6.6176 6.4ZM10.6667 23.4667C9.53508 23.4667 8.44983 23.9162 7.64968 24.7163C6.84952 25.5165 6.4 26.6017 6.4 27.7333C6.4 28.8649 6.84952 29.9502 7.64968 30.7503C8.44983 31.5505 9.53508 32 10.6667 32C11.7983 32 12.8835 31.5505 13.6837 30.7503C14.4838 29.9502 14.9333 28.8649 14.9333 27.7333C14.9333 26.6017 14.4838 25.5165 13.6837 24.7163C12.8835 23.9162 11.7983 23.4667 10.6667 23.4667ZM25.6 23.4667C24.4684 23.4667 23.3832 23.9162 22.583 24.7163C21.7829 25.5165 21.3333 26.6017 21.3333 27.7333C21.3333 28.8649 21.7829 29.9502 22.583 30.7503C23.3832 31.5505 24.4684 32 25.6 32C26.7316 32 27.8168 31.5505 28.617 30.7503C29.4171 29.9502 29.8667 28.8649 29.8667 27.7333C29.8667 26.6017 29.4171 25.5165 28.617 24.7163C27.8168 23.9162 26.7316 23.4667 25.6 23.4667ZM10.6667 25.6C11.2325 25.6 11.7751 25.8248 12.1752 26.2248C12.5752 26.6249 12.8 27.1675 12.8 27.7333C12.8 28.2991 12.5752 28.8418 12.1752 29.2418C11.7751 29.6419 11.2325 29.8667 10.6667 29.8667C10.1009 29.8667 9.55825 29.6419 9.15817 29.2418C8.7581 28.8418 8.53333 28.2991 8.53333 27.7333C8.53333 27.1675 8.7581 26.6249 9.15817 26.2248C9.55825 25.8248 10.1009 25.6 10.6667 25.6ZM25.6 25.6C26.1658 25.6 26.7084 25.8248 27.1085 26.2248C27.5086 26.6249 27.7333 27.1675 27.7333 27.7333C27.7333 28.2991 27.5086 28.8418 27.1085 29.2418C26.7084 29.6419 26.1658 29.8667 25.6 29.8667C25.0342 29.8667 24.4916 29.6419 24.0915 29.2418C23.6914 28.8418 23.4667 28.2991 23.4667 27.7333C23.4667 27.1675 23.6914 26.6249 24.0915 26.2248C24.4916 25.8248 25.0342 25.6 25.6 25.6Z" fill="#333333"/>
</svg>
