<?xml version="1.0" standalone="no"?>
<!DOCTYPE svg PUBLIC "-//W3C//DTD SVG 20010904//EN"
 "http://www.w3.org/TR/2001/REC-SVG-20010904/DTD/svg10.dtd">
<svg version="1.0" xmlns="http://www.w3.org/2000/svg"
 width="310.000000pt" height="310.000000pt" viewBox="0 0 310.000000 310.000000"
 preserveAspectRatio="xMidYMid meet">
<metadata>
Created by potrace 1.11, written by Peter Selinger 2001-2013
</metadata>
<g transform="translate(0.000000,310.000000) scale(0.100000,-0.100000)"
fill="#000000" stroke="none">
<path d="M1465 3064 c-419 -38 -734 -185 -1007 -472 -190 -200 -318 -448 -380
-736 -29 -135 -31 -424 -4 -561 120 -607 564 -1062 1167 -1197 90 -20 131 -23
309 -23 178 0 219 3 309 23 537 120 954 498 1119 1013 54 167 66 254 66 459 0
200 -15 301 -70 466 -174 526 -640 924 -1179 1009 -98 15 -266 25 -330 19z
m208 -376 c128 -179 208 -279 306 -380 41 -43 71 -81 67 -85 -4 -5 -50 -8
-101 -8 -110 0 -109 10 -3 -132 116 -156 254 -285 360 -339 26 -13 48 -27 48
-30 0 -24 -195 -73 -293 -74 l-48 0 32 -46 c119 -173 382 -467 495 -555 67
-51 66 -52 -70 -98 -118 -39 -254 -52 -431 -40 -71 4 -185 11 -252 15 l-123 7
0 -181 0 -182 -95 0 -95 0 0 181 0 182 -102 -7 c-57 -3 -198 -9 -313 -12 -239
-8 -321 3 -454 58 l-74 31 29 21 c123 90 301 280 458 488 47 63 86 118 86 121
0 3 -17 9 -37 12 -89 14 -192 39 -241 57 l-54 20 54 31 c138 78 293 233 418
417 l41 60 -106 0 c-58 0 -105 3 -105 6 0 11 485 614 491 611 4 -1 54 -68 112
-149z"/>
</g>
</svg>
