<svg width="46" height="46" fill="none" xmlns="http://www.w3.org/2000/svg"><g clip-path="url(#clip0)" fill="#CACACA"><path d="M18.75 22.698a4.345 4.345 0 108.69 0 4.345 4.345 0 00-8.69 0z"/><path d="M12.934 15.011a4.037 4.037 0 01.976-1.498c.42-.433.932-.766 1.498-.975.46-.178 1.15-.39 2.42-.449 1.375-.062 1.787-.076 5.267-.076 3.48 0 3.893.013 5.267.076 1.27.058 1.96.27 2.42.449a4.031 4.031 0 011.499.975c.432.42.766.932.975 1.498.178.46.39 1.15.448 2.42.063 1.375.077 1.787.077 5.268 0 3.48-.014 3.892-.077 5.267-.057 1.27-.27 1.96-.448 2.42a4.038 4.038 0 01-.975 1.498c-.42.433-.932.766-1.499.975-.46.179-1.15.391-2.42.45-1.374.062-1.786.075-5.267.075-3.48 0-3.893-.013-5.267-.076-1.27-.058-1.96-.27-2.42-.449a4.316 4.316 0 01-2.473-2.473c-.179-.46-.391-1.15-.45-2.42-.062-1.375-.075-1.787-.075-5.267 0-3.48.013-3.893.076-5.267.057-1.27.27-1.961.448-2.42zm10.161 14.38a6.693 6.693 0 100-13.385 6.693 6.693 0 000 13.385zm-6.957-12.086a1.564 1.564 0 100-3.128 1.564 1.564 0 000 3.128z"/><path d="M23.095 0c12.534 0 22.698 10.164 22.698 22.698S35.63 45.397 23.095 45.397.397 35.232.397 22.698C.397 10.164 10.56 0 23.095 0zM10.14 28.072c.063 1.387.283 2.335.605 3.164a6.664 6.664 0 003.812 3.812c.83.322 1.777.542 3.164.605 1.39.064 1.834.08 5.374.08 3.54 0 3.983-.016 5.373-.08 1.388-.063 2.335-.283 3.164-.605a6.385 6.385 0 002.309-1.504 6.388 6.388 0 001.503-2.308c.322-.829.543-1.777.606-3.164.064-1.39.079-1.834.079-5.374 0-3.54-.015-3.983-.079-5.373-.063-1.388-.283-2.335-.605-3.164a6.385 6.385 0 00-1.504-2.309 6.384 6.384 0 00-2.309-1.503c-.829-.322-1.776-.542-3.164-.606-1.39-.063-1.833-.078-5.373-.078s-3.984.015-5.374.078c-1.387.064-2.334.284-3.164.605a6.395 6.395 0 00-2.308 1.504 6.387 6.387 0 00-1.504 2.309c-.322.829-.542 1.776-.606 3.164-.063 1.39-.078 1.834-.078 5.373 0 3.54.015 3.984.079 5.374z"/></g><defs><clipPath id="clip0"><path fill="#fff" transform="matrix(-1 0 0 1 45.793 0)" d="M0 0h45.397v45.397H0z"/></clipPath></defs></svg>