<svg width="46" height="46" fill="none" xmlns="http://www.w3.org/2000/svg"><path d="M22.698 0C10.163 0 0 10.162 0 22.698s10.163 22.699 22.698 22.699c12.536 0 22.699-10.163 22.699-22.699C45.397 10.162 35.234 0 22.698 0zm11.514 25.153c1.058 1.034 2.177 2.006 3.127 3.146.42.505.817 1.026 1.12 1.613.43.836.041 1.753-.708 1.803l-4.65-.001c-1.2.1-2.156-.385-2.962-1.206-.643-.654-1.24-1.353-1.86-2.03-.253-.278-.52-.54-.837-.745-.634-.412-1.185-.286-1.548.376-.37.674-.455 1.42-.49 2.17-.05 1.097-.381 1.384-1.482 1.436-2.35.11-4.581-.247-6.654-1.432-1.829-1.046-3.245-2.521-4.478-4.192-2.402-3.256-4.242-6.83-5.894-10.507-.372-.828-.1-1.271.813-1.288 1.518-.03 3.036-.026 4.553-.002.618.01 1.027.363 1.264.946.82 2.018 1.826 3.938 3.086 5.719.335.474.678.947 1.166 1.281.539.37.95.248 1.204-.353.162-.383.232-.791.268-1.201.12-1.403.135-2.805-.074-4.203-.13-.875-.622-1.44-1.494-1.604-.444-.085-.379-.249-.163-.503.375-.438.726-.71 1.428-.71H24.2c.828.162 1.014.534 1.126 1.368l.004 5.839c-.01.322.163 1.28.742 1.49.465.154.771-.219 1.049-.513 1.26-1.337 2.157-2.915 2.961-4.548.355-.72.661-1.466.959-2.213.22-.552.564-.824 1.188-.814l5.059.006c.149 0 .3.001.448.027.853.146 1.086.512.822 1.344-.415 1.307-1.221 2.396-2.01 3.487-.845 1.169-1.747 2.296-2.584 3.47-.769 1.072-.708 1.613.247 2.544z" fill="#CACACA"/></svg>