<svg width="234" height="55" viewBox="0 0 234 55" fill="none" xmlns="http://www.w3.org/2000/svg">
<path d="M0.521484 0L0.521484 54.3179H54.8394V39.6695H28.8626L28.8626 15.3309H42.7202V36.3073H54.8491V0L0.521484 0ZM15.6696 26.0835C18.4566 26.2776 20.5681 27.2048 22.0041 28.8651C22.5415 29.4637 22.9496 30.1668 23.2028 30.9303C23.4561 31.6939 23.549 32.5015 23.4757 33.3026C23.2946 35.5214 22.3464 37.2464 20.6311 38.4776C19.1304 39.5557 17.3402 40.0948 15.2605 40.0948H15.2281C13.3455 40.1178 11.4912 39.6346 9.85909 38.6959C7.91308 37.5661 6.58591 35.8006 5.87759 33.3997L9.06182 32.473C9.52217 34.0589 10.369 35.2007 11.6024 35.8982C12.7187 36.5127 13.9768 36.8233 15.2508 36.799C15.4659 36.799 15.6486 36.799 15.7974 36.7828C15.981 36.7664 16.1635 36.7394 16.344 36.7019C16.903 36.6271 17.448 36.4702 17.9612 36.2362C19.3131 35.613 20.0479 34.5516 20.1654 33.052C20.1974 32.6852 20.1545 32.3158 20.0394 31.966C19.9243 31.6163 19.7394 31.2936 19.4959 31.0175C18.6711 30.0472 17.3154 29.5082 15.4287 29.4004C11.9981 29.1643 9.49522 28.3492 7.92009 26.9552C6.6975 25.8523 6.08674 24.4432 6.08782 22.7279C6.08782 20.4444 6.99344 18.6116 8.80468 17.2295C10.4014 15.995 12.342 15.3783 14.6265 15.3794C17.3218 15.3794 19.5778 16.3389 21.3944 18.258C21.967 18.875 22.4688 19.5541 22.8903 20.2827C23.0925 20.6805 23.3189 21.1463 23.5647 21.6816L20.4613 22.8556C20.2268 22.3317 20.0166 21.9096 19.8355 21.5942C19.5971 21.2081 19.3107 20.8538 18.9832 20.5398C18.4281 19.9423 17.7531 19.4688 17.0023 19.1503C16.2515 18.8317 15.4419 18.6753 14.6265 18.6914C14.0817 18.6927 13.539 18.7578 13.0094 18.8855C12.4086 19.0134 11.8311 19.2327 11.2968 19.5356C10.0364 20.2568 9.40628 21.3198 9.40628 22.7246C9.40628 24.6954 11.4941 25.8151 15.6696 26.0835Z" fill="white"/>
<path d="M69.8565 35.5796C68.6134 35.5956 67.3892 35.2736 66.3149 34.6481C65.0438 33.9128 64.2314 32.9474 63.8778 31.7517L65.0502 31.4073C65.3187 32.328 65.9623 33.0751 66.9811 33.6487C67.864 34.1359 68.8596 34.3819 69.8678 34.3619C70.0295 34.3619 70.1815 34.3618 70.3044 34.3505C70.4509 34.3392 70.5967 34.3198 70.7411 34.2923C71.1872 34.2233 71.6222 34.0955 72.0348 33.9123C73.2153 33.3732 73.8552 32.4536 73.9544 31.1534C73.9837 30.8171 73.9437 30.4785 73.8368 30.1583C73.73 29.8381 73.5587 29.5433 73.3334 29.292C72.6359 28.4802 71.5362 28.0241 70.0344 27.9239C67.7056 27.7708 66.0313 27.2344 65.0114 26.3148C64.6427 25.9944 64.3498 25.596 64.154 25.1485C63.9583 24.701 63.8644 24.2155 63.8794 23.7273C63.86 23.0528 64.0059 22.3837 64.3044 21.7785C64.603 21.1733 65.045 20.6504 65.592 20.2552C66.6431 19.4498 67.9153 19.0472 69.4085 19.0472C70.2368 19.0292 71.0596 19.1869 71.8225 19.5099C72.5854 19.833 73.2712 20.3141 73.8347 20.9215C74.2081 21.3276 74.5337 21.7753 74.805 22.2556C74.8849 22.3834 74.9541 22.5176 75.012 22.6567L73.88 23.082L73.6148 22.6163C73.4267 22.3066 73.1989 22.0228 72.9372 21.7721C72.4892 21.2851 71.9428 20.8989 71.3341 20.6393C70.7254 20.3798 70.0685 20.2527 69.4069 20.2665C68.9707 20.2681 68.5363 20.3224 68.1132 20.4282C67.6253 20.5267 67.1559 20.7013 66.7224 20.9457C65.6346 21.5829 65.0907 22.5106 65.0907 23.7289C65.0907 25.4895 66.7617 26.4813 70.1039 26.7045C71.9432 26.8274 73.3226 27.4204 74.2422 28.4834C74.5762 28.8559 74.8302 29.2929 74.9884 29.7674C75.1467 30.242 75.2059 30.744 75.1624 31.2423C75.0471 32.6439 74.4455 33.7398 73.3577 34.53C72.3873 35.2276 71.2224 35.5764 69.8629 35.5764L69.8565 35.5796Z" fill="white"/>
<path d="M77.9829 21.2789C77.8978 21.2 77.8303 21.1041 77.7849 20.9974C77.7394 20.8906 77.7171 20.7755 77.7193 20.6595C77.7162 20.5413 77.7382 20.4237 77.7836 20.3145C77.829 20.2052 77.8969 20.1068 77.9829 20.0256C78.0621 19.9406 78.1584 19.8732 78.2654 19.8278C78.3723 19.7824 78.4877 19.76 78.6039 19.762C78.8414 19.7632 79.0687 19.8583 79.2365 20.0264C79.4043 20.1944 79.4989 20.422 79.4998 20.6595C79.5019 20.7755 79.4796 20.8906 79.4342 20.9974C79.3887 21.1041 79.3213 21.2 79.2362 21.2789C79.1554 21.3651 79.0573 21.4333 78.9483 21.479C78.8394 21.5247 78.722 21.5469 78.6039 21.5441C78.4875 21.5462 78.372 21.5237 78.265 21.478C78.158 21.4322 78.0618 21.3644 77.9829 21.2789ZM78.0168 24.0507H79.2022V35.2691H78.0168V24.0507Z" fill="white"/>
<path d="M94.0076 29.6704C93.9999 31.1936 93.3924 32.6524 92.3165 33.7307C91.2407 34.8089 89.7832 35.4198 88.2601 35.4308C86.4974 35.4308 84.9724 34.695 83.6851 33.2234V35.2691H82.5029V18.7383H83.6867V26.1078C84.9287 24.6674 86.4537 23.9354 88.2617 23.9116C89.7861 23.9176 91.2463 24.5266 92.3232 25.6056C93.4001 26.6846 94.0062 28.146 94.0092 29.6704H94.0076ZM92.8238 29.6947C92.8252 28.6363 92.4596 27.6102 91.7893 26.7911C91.119 25.972 90.1855 25.4107 89.1477 25.2027C88.11 24.9947 87.0323 25.153 86.0981 25.6505C85.164 26.1481 84.4312 26.9541 84.0247 27.9313C83.6182 28.9085 83.563 29.9964 83.8687 31.0097C84.1743 32.023 84.8218 32.899 85.7009 33.4884C86.58 34.0778 87.6362 34.3442 88.6897 34.2422C89.7431 34.1402 90.7286 33.6762 91.4783 32.929C91.9112 32.5101 92.2539 32.0071 92.4853 31.4509C92.7167 30.8947 92.8319 30.297 92.8238 29.6947Z" fill="white"/>
<path d="M96.4446 21.2789C96.3593 21.2001 96.2916 21.1042 96.2459 20.9975C96.2002 20.8908 96.1775 20.7756 96.1794 20.6595C96.1767 20.5411 96.1989 20.4235 96.2446 20.3143C96.2903 20.2051 96.3585 20.1067 96.4446 20.0256C96.5239 19.9406 96.6202 19.8732 96.7271 19.8278C96.8341 19.7824 96.9495 19.76 97.0657 19.762C97.3032 19.7632 97.5305 19.8583 97.6983 20.0264C97.8661 20.1944 97.9608 20.422 97.9616 20.6595C97.9638 20.7755 97.9414 20.8906 97.896 20.9974C97.8506 21.1041 97.7831 21.2 97.698 21.2789C97.6171 21.3649 97.519 21.433 97.41 21.4787C97.3011 21.5244 97.1838 21.5467 97.0657 21.5441C96.9493 21.5462 96.8338 21.5237 96.7268 21.478C96.6197 21.4322 96.5236 21.3644 96.4446 21.2789ZM96.4786 24.0507H97.664V35.2691H96.4786V24.0507Z" fill="white"/>
<path d="M105.284 23.9116V25.0841H105.25C104.424 25.0905 103.633 25.4224 103.05 26.008C102.467 26.5935 102.138 27.3854 102.135 28.2117V35.2691H100.961V24.0507H102.135V25.2684C102.525 24.8452 102.998 24.5085 103.526 24.2803C104.068 24.0365 104.656 23.9108 105.25 23.9116H105.284Z" fill="white"/>
<path d="M107.446 21.2788C107.362 21.201 107.295 21.1064 107.249 21.0012C107.204 20.8959 107.18 20.7823 107.181 20.6675C107.178 20.5492 107.201 20.4316 107.246 20.3224C107.292 20.2131 107.36 20.1148 107.446 20.0336C107.525 19.9487 107.621 19.8814 107.728 19.836C107.835 19.7906 107.95 19.7681 108.066 19.77C108.303 19.7713 108.531 19.8662 108.699 20.0343C108.867 20.2023 108.962 20.4299 108.963 20.6675C108.965 20.7836 108.943 20.8988 108.897 21.0055C108.851 21.1123 108.783 21.2082 108.698 21.2869C108.617 21.3732 108.519 21.4415 108.41 21.4872C108.301 21.5329 108.184 21.555 108.066 21.5521C107.949 21.553 107.834 21.5291 107.727 21.482C107.62 21.4348 107.524 21.3656 107.446 21.2788ZM107.48 24.0507H108.664V35.269H107.48V24.0507Z" fill="white"/>
<path d="M115.505 35.4309C114.628 35.4342 113.767 35.2037 113.009 34.763C112.12 34.2422 111.56 33.5873 111.331 32.7981L112.463 32.4747C112.617 32.9868 113.019 33.4272 113.669 33.7959C114.237 34.1 114.872 34.2568 115.516 34.2519C115.6 34.2519 115.694 34.2519 115.797 34.239C115.901 34.2261 116.009 34.2212 116.121 34.205C116.399 34.1583 116.671 34.0773 116.929 33.9641C117.262 33.8138 117.547 33.5742 117.752 33.2719C117.957 32.9696 118.074 32.6164 118.091 32.2515C118.109 32.0493 118.084 31.8455 118.019 31.6534C117.953 31.4612 117.848 31.2848 117.711 31.1356C117.274 30.6224 116.577 30.3351 115.62 30.2737C113.925 30.1659 112.725 29.7519 112.021 29.0317C111.762 28.7779 111.565 28.4673 111.446 28.1244C111.352 27.8468 111.306 27.5554 111.308 27.2625C111.294 26.7849 111.396 26.311 111.604 25.8808C111.812 25.4507 112.12 25.077 112.503 24.7914C113.28 24.2049 114.233 23.9003 115.206 23.9279C115.789 23.9152 116.368 24.0266 116.905 24.2547C117.442 24.4827 117.924 24.8222 118.32 25.2507C118.589 25.5342 118.821 25.8511 119.009 26.1935L119.114 26.4005L117.998 26.8258L117.951 26.7337C117.811 26.4944 117.646 26.2705 117.458 26.0658C117.163 25.7548 116.806 25.5093 116.41 25.3452C116.013 25.1812 115.587 25.1021 115.159 25.1133C114.997 25.1133 114.859 25.131 114.745 25.1472C114.45 25.1922 114.161 25.2692 113.883 25.3769C112.955 25.738 112.492 26.3666 112.492 27.2625C112.492 27.8975 112.869 28.3724 113.624 28.6872C114.284 28.9308 114.978 29.0667 115.681 29.0899C116.343 29.126 116.991 29.2908 117.589 29.5751C117.973 29.7693 118.316 30.0343 118.602 30.3562C118.841 30.6249 119.022 30.9404 119.134 31.2828C119.245 31.6252 119.284 31.987 119.248 32.3453C119.171 33.349 118.749 34.1269 117.984 34.6789C117.262 35.1965 116.39 35.4629 115.501 35.4373L115.505 35.4309Z" fill="white"/>
<path d="M132.034 32.2353C131.627 33.049 131.033 33.7544 130.3 34.2934C129.567 34.8324 128.717 35.1895 127.819 35.3354C126.921 35.4814 126.001 35.4119 125.135 35.1327C124.269 34.8535 123.482 34.3726 122.839 33.7296C122.3 33.1979 121.874 32.5638 121.584 31.8648C121.295 31.1657 121.148 30.4157 121.153 29.6591C121.152 28.8933 121.304 28.1348 121.601 27.429C121.89 26.7435 122.312 26.1223 122.843 25.6016C123.366 25.0766 123.987 24.659 124.671 24.3726C125.374 24.0656 126.134 23.9086 126.901 23.9117C127.984 23.9064 129.046 24.2141 129.959 24.7979C130.85 25.358 131.57 26.1532 132.039 27.0959L130.907 27.5811C130.578 26.9517 130.107 26.4084 129.53 25.9949C128.953 25.5815 128.286 25.3095 127.585 25.2009C126.883 25.0923 126.166 25.1501 125.491 25.3697C124.816 25.5894 124.202 25.9646 123.699 26.4652C123.283 26.875 122.953 27.3638 122.729 27.9029C122.493 28.4592 122.371 29.0573 122.371 29.6616C122.371 30.2658 122.493 30.8639 122.729 31.4202C122.949 31.9611 123.279 32.4502 123.699 32.8563C124.108 33.2745 124.596 33.6071 125.135 33.8347C125.801 34.1146 126.523 34.2314 127.243 34.1751C127.963 34.1188 128.659 33.8912 129.273 33.5112C129.967 33.0784 130.531 32.4667 130.907 31.7404L132.034 32.2353Z" fill="white"/>
<path d="M143.886 35.2691H142.702V28.4769C142.702 27.5835 142.348 26.7267 141.716 26.095C141.084 25.4632 140.227 25.1083 139.334 25.1083C138.44 25.1083 137.584 25.4632 136.952 26.095C136.32 26.7267 135.965 27.5835 135.965 28.4769V35.2691H134.781V18.7383H135.965V25.3574C136.816 24.4313 137.939 23.9521 139.334 23.9197C140.541 23.9206 141.698 24.4005 142.552 25.254C143.405 26.1076 143.885 27.265 143.886 28.4721V35.2691Z" fill="white"/>
<path d="M152.116 23.9117C152.888 23.9094 153.651 24.0663 154.359 24.3726C155.738 24.9534 156.835 26.0503 157.416 27.429C157.722 28.1365 157.879 28.8996 157.876 29.6705V29.7626H147.599C147.604 30.3578 147.733 30.9455 147.978 31.4882C148.209 32.0166 148.538 32.4962 148.948 32.9016C149.357 33.3051 149.841 33.6253 150.373 33.8444C150.921 34.0811 151.511 34.2022 152.108 34.2002C152.95 34.2048 153.775 33.9698 154.489 33.5226C155.182 33.0896 155.745 32.4779 156.12 31.7518L157.252 32.2466C156.784 33.1873 156.063 33.979 155.171 34.5333C154.259 35.1194 153.197 35.4273 152.113 35.4195C151.347 35.4207 150.589 35.2678 149.883 34.97C148.492 34.3935 147.387 33.2883 146.81 31.8973C146.365 30.8441 146.245 29.6821 146.464 28.5599C146.683 27.4378 147.232 26.4066 148.041 25.5984C148.57 25.0752 149.194 24.658 149.88 24.3693C150.586 24.0643 151.347 23.9085 152.116 23.9117ZM156.497 28.5336C156.246 27.5621 155.68 26.7015 154.887 26.0868C154.094 25.4722 153.119 25.1382 152.116 25.1375C151.104 25.1281 150.121 25.4712 149.335 26.1078C148.547 26.7164 147.985 27.5699 147.737 28.5336H156.497Z" fill="white"/>
<path d="M166.111 34.0287H174.584V35.269H164.869V19.3593H166.111V34.0287Z" fill="white"/>
<path d="M182.361 35.4195C180.835 35.4195 179.371 34.8133 178.292 33.7342C177.213 32.6551 176.607 31.1916 176.607 29.6655C176.607 28.1395 177.213 26.676 178.292 25.5969C179.371 24.5178 180.835 23.9116 182.361 23.9116C184.177 23.9116 185.702 24.6436 186.936 26.1077V24.0636H188.119V35.2594H186.936V33.2233C185.726 34.6874 184.201 35.4195 182.361 35.4195ZM182.361 25.0841C181.753 25.0726 181.15 25.1824 180.585 25.4069C180.021 25.6314 179.507 25.9661 179.074 26.3916C178.64 26.817 178.296 27.3246 178.061 27.8846C177.826 28.4447 177.705 29.046 177.705 29.6534C177.705 30.2608 177.826 30.8621 178.061 31.4222C178.296 31.9822 178.64 32.4898 179.074 32.9152C179.507 33.3407 180.021 33.6754 180.585 33.8999C181.15 34.1244 181.753 34.2342 182.361 34.2228C182.961 34.2262 183.557 34.1105 184.113 33.8826C184.669 33.6546 185.174 33.3187 185.599 32.8944C186.025 32.4701 186.362 31.9657 186.591 31.4104C186.82 30.8551 186.938 30.2599 186.936 29.6591C186.936 29.0581 186.818 28.463 186.588 27.9078C186.358 27.3525 186.021 26.848 185.597 26.4231C185.172 25.9982 184.667 25.6612 184.112 25.4314C183.557 25.2017 182.962 25.0836 182.361 25.0841ZM178.913 20.991C178.827 20.912 178.759 20.8159 178.714 20.7088C178.668 20.6018 178.645 20.4863 178.648 20.37C178.645 20.2518 178.667 20.1344 178.713 20.0254C178.758 19.9164 178.826 19.8184 178.913 19.7376C178.992 19.6521 179.088 19.5843 179.195 19.5386C179.302 19.4929 179.417 19.4703 179.534 19.4724C179.771 19.4741 179.998 19.5693 180.166 19.7373C180.334 19.9053 180.428 20.1326 180.43 20.37C180.432 20.4862 180.41 20.6017 180.364 20.7087C180.319 20.8157 180.251 20.9119 180.166 20.991C180.085 21.0768 179.987 21.1447 179.878 21.1901C179.769 21.2355 179.652 21.2575 179.534 21.2546C179.418 21.257 179.302 21.2347 179.195 21.1893C179.088 21.1439 178.992 21.0763 178.913 20.991ZM184.573 20.991C184.488 20.9119 184.42 20.8157 184.375 20.7087C184.329 20.6017 184.307 20.4862 184.309 20.37C184.306 20.2519 184.328 20.1346 184.373 20.0256C184.419 19.9166 184.487 19.8185 184.573 19.7376C184.652 19.6521 184.748 19.5843 184.855 19.5386C184.962 19.4929 185.078 19.4703 185.194 19.4724C185.431 19.4741 185.658 19.5693 185.826 19.7373C185.994 19.9053 186.089 20.1326 186.09 20.37C186.092 20.4862 186.07 20.6017 186.025 20.7087C185.979 20.8157 185.912 20.9119 185.826 20.991C185.745 21.077 185.647 21.1449 185.538 21.1904C185.429 21.2358 185.312 21.2577 185.194 21.2546C185.077 21.2577 184.96 21.2358 184.853 21.1903C184.745 21.1449 184.648 21.0769 184.568 20.991H184.573Z" fill="white"/>
<path d="M195.753 23.9116V25.0841H195.719C194.892 25.0905 194.102 25.4224 193.519 26.008C192.936 26.5935 192.607 27.3854 192.604 28.2117V35.2691H191.431V24.0507H192.604V25.2684C192.993 24.8452 193.467 24.5085 193.995 24.2803C194.537 24.0365 195.124 23.9108 195.719 23.9116H195.753Z" fill="white"/>
<path d="M207.985 32.2352C207.578 33.0489 206.983 33.7543 206.25 34.2933C205.517 34.8323 204.667 35.1894 203.769 35.3354C202.871 35.4813 201.951 35.4118 201.085 35.1326C200.219 34.8534 199.432 34.3725 198.788 33.7295C197.977 32.921 197.426 31.8891 197.204 30.7655C196.983 29.642 197.102 28.478 197.546 27.4225C197.835 26.7373 198.257 26.1162 198.788 25.5951C199.311 25.0704 199.932 24.6529 200.615 24.366C201.319 24.0592 202.078 23.9022 202.845 23.9051C203.929 23.8993 204.991 24.2071 205.904 24.7913C206.795 25.3519 207.515 26.1469 207.985 27.0893L206.853 27.5745C206.524 26.9452 206.053 26.4018 205.476 25.9884C204.899 25.5749 204.233 25.3029 203.531 25.1943C202.83 25.0857 202.112 25.1435 201.437 25.3632C200.762 25.5828 200.148 25.958 199.645 26.4586C199.01 27.0949 198.578 27.9059 198.405 28.7884C198.232 29.6708 198.326 30.5848 198.675 31.4137C198.896 31.9541 199.226 32.4431 199.645 32.8498C200.054 33.2683 200.543 33.6009 201.083 33.8282C201.748 34.1081 202.471 34.2248 203.191 34.1686C203.911 34.1123 204.607 33.8847 205.221 33.5047C205.918 33.0759 206.486 32.4662 206.864 31.7404L207.985 32.2352Z" fill="white"/>
<path d="M219.836 35.2691H218.652V28.4769C218.662 28.0284 218.582 27.5825 218.417 27.1653C218.252 26.7481 218.006 26.3681 217.692 26.0474C217.378 25.7268 217.004 25.472 216.59 25.2981C216.177 25.1241 215.733 25.0345 215.284 25.0345C214.835 25.0345 214.391 25.1241 213.978 25.2981C213.564 25.472 213.19 25.7268 212.876 26.0474C212.562 26.3681 212.316 26.7481 212.151 27.1653C211.986 27.5825 211.906 28.0284 211.916 28.4769V35.2691H210.732V18.7383H211.916V25.3574C212.767 24.4313 213.889 23.9521 215.283 23.9197C215.881 23.9197 216.473 24.0375 217.025 24.2662C217.578 24.495 218.079 24.8303 218.502 25.2531C218.925 25.6758 219.26 26.1776 219.489 26.73C219.718 27.2823 219.836 27.8742 219.836 28.4721V35.2691Z" fill="white"/>
<path d="M228.067 23.9117C228.838 23.9096 229.601 24.0665 230.308 24.3726C231.687 24.9539 232.784 26.0506 233.366 27.429C233.671 28.1369 233.828 28.8998 233.826 29.6704V29.7626H223.549C223.554 30.3579 223.684 30.9456 223.929 31.4882C224.159 32.0166 224.489 32.4963 224.899 32.9016C225.309 33.3044 225.793 33.6245 226.324 33.8444C226.872 34.081 227.463 34.2021 228.06 34.2002C228.902 34.2048 229.727 33.9697 230.439 33.5226C231.133 33.0904 231.697 32.4785 232.071 31.7518L233.203 32.2466C232.723 33.1984 231.989 33.9987 231.082 34.5588C230.176 35.1189 229.131 35.4168 228.065 35.4195C227.299 35.421 226.541 35.2681 225.835 34.9699C225.146 34.6854 224.52 34.2675 223.992 33.7402C223.465 33.2129 223.047 32.5866 222.763 31.8973C222.318 30.8441 222.198 29.6824 222.416 28.5604C222.635 27.4384 223.184 26.4072 223.992 25.5984C224.521 25.0748 225.146 24.6576 225.832 24.3693C226.537 24.0642 227.298 23.9084 228.067 23.9117ZM232.446 28.5336C232.195 27.5624 231.629 26.702 230.837 26.0873C230.044 25.4727 229.07 25.1386 228.067 25.1375C227.055 25.1279 226.072 25.471 225.285 26.1078C224.498 26.7164 223.936 27.5699 223.688 28.5336H232.446Z" fill="white"/>
</svg>
