<svg width="55" height="234" viewBox="0 0 55 234" fill="none" xmlns="http://www.w3.org/2000/svg">
<path d="M6.47734e-07 179.161L0 233.479L54.3179 233.479L54.3179 179.161L6.47734e-07 179.161Z" fill="white"/>
<path d="M0 233.479L54.3179 233.479L54.3179 179.161L39.6695 179.161L39.6695 205.138L15.3309 205.138L15.3309 191.28L36.3073 191.28L36.3073 179.151L6.4785e-07 179.151L0 233.479ZM26.0835 218.331C26.2776 215.544 27.2048 213.432 28.8651 211.996C29.4637 211.459 30.1668 211.051 30.9303 210.797C31.6939 210.544 32.5015 210.451 33.3026 210.524C35.5214 210.705 37.2464 211.654 38.4776 213.369C39.5557 214.87 40.0948 216.66 40.0948 218.74L40.0948 218.772C40.1178 220.655 39.6346 222.509 38.6959 224.141C37.5661 226.087 35.8006 227.414 33.3997 228.123L32.473 224.938C34.0589 224.478 35.2007 223.631 35.8982 222.398C36.5127 221.281 36.8233 220.023 36.799 218.749C36.799 218.534 36.799 218.352 36.7828 218.203C36.7664 218.019 36.7394 217.837 36.7019 217.656C36.6271 217.097 36.4702 216.552 36.2362 216.039C35.613 214.687 34.5516 213.952 33.052 213.835C32.6852 213.803 32.3158 213.846 31.966 213.961C31.6163 214.076 31.2936 214.261 31.0175 214.504C30.0472 215.329 29.5082 216.685 29.4004 218.571C29.1643 222.002 28.3492 224.505 26.9552 226.08C25.8523 227.303 24.4432 227.913 22.7279 227.912C20.4444 227.912 18.6116 227.007 17.2295 225.195C15.995 223.599 15.3783 221.658 15.3794 219.374C15.3794 216.678 16.3389 214.422 18.258 212.606C18.875 212.033 19.5541 211.531 20.2827 211.11C20.6805 210.908 21.1463 210.681 21.6816 210.435L22.8556 213.539C22.3317 213.773 21.9096 213.984 21.5942 214.165C21.2081 214.403 20.8538 214.689 20.5398 215.017C19.9423 215.572 19.4688 216.247 19.1503 216.998C18.8317 217.749 18.6753 218.558 18.6914 219.374C18.6927 219.918 18.7578 220.461 18.8855 220.991C19.0134 221.591 19.2327 222.169 19.5356 222.703C20.2568 223.964 21.3198 224.594 22.7246 224.594C24.6954 224.594 25.8151 222.506 26.0835 218.331Z" fill="black"/>
<path d="M35.5797 164.144C35.5957 165.387 35.2737 166.611 34.6482 167.685C33.9129 168.956 32.9475 169.769 31.7518 170.122L31.4074 168.95C32.3281 168.681 33.0752 168.038 33.6488 167.019C34.136 166.136 34.382 165.14 34.362 164.132C34.362 163.971 34.362 163.819 34.3507 163.696C34.3394 163.549 34.3199 163.403 34.2924 163.259C34.2235 162.813 34.0957 162.378 33.9124 161.965C33.3733 160.785 32.4537 160.145 31.1535 160.046C30.8173 160.016 30.4786 160.056 30.1584 160.163C29.8383 160.27 29.5434 160.441 29.2921 160.667C28.4803 161.364 28.0242 162.464 27.924 163.966C27.7709 166.294 27.2345 167.969 26.3149 168.989C25.9945 169.357 25.5961 169.65 25.1486 169.846C24.7011 170.042 24.2156 170.136 23.7274 170.121C23.0529 170.14 22.3838 169.994 21.7786 169.696C21.1735 169.397 20.6505 168.955 20.2553 168.408C19.45 167.357 19.0473 166.085 19.0473 164.592C19.0293 163.763 19.187 162.941 19.5101 162.178C19.8331 161.415 20.3142 160.729 20.9216 160.165C21.3278 159.792 21.7754 159.466 22.2558 159.195C22.3836 159.115 22.5177 159.046 22.6568 158.988L23.0821 160.12L22.6164 160.385C22.3067 160.573 22.0229 160.801 21.7722 161.063C21.2852 161.511 20.8991 162.057 20.6395 162.666C20.3799 163.275 20.2528 163.932 20.2666 164.593C20.2682 165.029 20.3225 165.464 20.4284 165.887C20.5268 166.375 20.7014 166.844 20.9459 167.278C21.583 168.366 22.5107 168.909 23.729 168.909C25.4896 168.909 26.4815 167.238 26.7046 163.896C26.8275 162.057 27.4205 160.677 28.4835 159.758C28.856 159.424 29.293 159.17 29.7676 159.012C30.2421 158.853 30.7441 158.794 31.2424 158.838C32.644 158.953 33.7399 159.555 34.5302 160.642C35.2277 161.613 35.5765 162.778 35.5765 164.137L35.5797 164.144Z" fill="#1D1D1B"/>
<path d="M21.2788 156.017C21.1999 156.102 21.104 156.17 20.9972 156.215C20.8905 156.261 20.7754 156.283 20.6594 156.281C20.5411 156.284 20.4236 156.262 20.3143 156.217C20.2051 156.171 20.1067 156.103 20.0254 156.017C19.9405 155.938 19.8731 155.842 19.8277 155.735C19.7823 155.628 19.7598 155.512 19.7618 155.396C19.7631 155.159 19.8581 154.931 20.0262 154.764C20.1943 154.596 20.4219 154.501 20.6594 154.5C20.7754 154.498 20.8905 154.521 20.9972 154.566C21.104 154.611 21.1999 154.679 21.2788 154.764C21.365 154.845 21.4332 154.943 21.4789 155.052C21.5246 155.161 21.5468 155.278 21.544 155.396C21.5461 155.513 21.5235 155.628 21.4778 155.735C21.4321 155.842 21.3643 155.938 21.2788 156.017ZM24.0506 155.983L24.0506 154.798L35.269 154.798L35.269 155.983L24.0506 155.983Z" fill="#1D1D1B"/>
<path d="M29.6704 139.993C31.1936 140 32.6524 140.608 33.7307 141.684C34.8089 142.76 35.4198 144.217 35.4308 145.74C35.4308 147.503 34.695 149.028 33.2234 150.315L35.2691 150.315L35.2691 151.497L18.7383 151.497L18.7383 150.313L26.1078 150.313C24.6674 149.071 23.9354 147.546 23.9116 145.738C23.9176 144.214 24.5266 142.754 25.6056 141.677C26.6846 140.6 28.146 139.994 29.6704 139.991L29.6704 139.993ZM29.6947 141.176C28.6363 141.175 27.6102 141.541 26.7911 142.211C25.972 142.881 25.4107 143.815 25.2027 144.852C24.9947 145.89 25.153 146.968 25.6505 147.902C26.1481 148.836 26.9541 149.569 27.9313 149.975C28.9085 150.382 29.9964 150.437 31.0097 150.131C32.023 149.826 32.899 149.178 33.4884 148.299C34.0778 147.42 34.3442 146.364 34.2422 145.311C34.1402 144.257 33.6762 143.272 32.929 142.522C32.5101 142.089 32.0071 141.746 31.4509 141.515C30.8947 141.284 30.297 141.168 29.6947 141.176Z" fill="#1D1D1B"/>
<path d="M21.2788 137.556C21.2 137.641 21.1041 137.709 20.9974 137.754C20.8906 137.8 20.7755 137.823 20.6594 137.821C20.541 137.823 20.4234 137.801 20.3142 137.756C20.205 137.71 20.1066 137.642 20.0254 137.556C19.9405 137.476 19.8731 137.38 19.8277 137.273C19.7823 137.166 19.7598 137.051 19.7618 136.935C19.7631 136.697 19.8581 136.47 20.0262 136.302C20.1943 136.134 20.4219 136.039 20.6594 136.039C20.7754 136.036 20.8905 136.059 20.9972 136.104C21.104 136.15 21.1999 136.217 21.2788 136.302C21.3648 136.383 21.4329 136.481 21.4786 136.59C21.5243 136.699 21.5466 136.816 21.544 136.935C21.5461 137.051 21.5235 137.166 21.4778 137.273C21.4321 137.38 21.3643 137.477 21.2788 137.556ZM24.0506 137.522L24.0506 136.336L35.269 136.336L35.269 137.522L24.0506 137.522Z" fill="#1D1D1B"/>
<path d="M23.9116 128.716L25.0841 128.716L25.0841 128.75C25.0905 129.576 25.4224 130.367 26.008 130.95C26.5935 131.533 27.3854 131.862 28.2117 131.865L35.2691 131.865L35.2691 133.039L24.0507 133.039L24.0507 131.865L25.2684 131.865C24.8452 131.476 24.5085 131.002 24.2803 130.474C24.0365 129.932 23.9108 129.344 23.9116 128.75L23.9116 128.716Z" fill="#1D1D1B"/>
<path d="M21.279 126.554C21.2011 126.638 21.1065 126.705 21.0013 126.751C20.896 126.797 20.7824 126.82 20.6677 126.819C20.5493 126.822 20.4317 126.8 20.3225 126.754C20.2133 126.708 20.1149 126.64 20.0337 126.554C19.9489 126.475 19.8816 126.379 19.8361 126.272C19.7907 126.165 19.7682 126.05 19.7701 125.934C19.7714 125.697 19.8664 125.469 20.0344 125.301C20.2025 125.133 20.43 125.038 20.6677 125.037C20.7838 125.035 20.8989 125.058 21.0057 125.103C21.1124 125.149 21.2083 125.217 21.287 125.302C21.3733 125.383 21.4416 125.481 21.4873 125.59C21.533 125.699 21.5552 125.816 21.5523 125.934C21.5531 126.051 21.5292 126.167 21.4821 126.273C21.435 126.38 21.3657 126.476 21.279 126.554ZM24.0508 126.52L24.0508 125.336L35.2692 125.336L35.2692 126.52L24.0508 126.52Z" fill="#1D1D1B"/>
<path d="M35.431 118.495C35.4344 119.372 35.2038 120.233 34.7631 120.991C34.2424 121.88 33.5874 122.44 32.7982 122.669L32.4748 121.537C32.9869 121.383 33.4273 120.981 33.796 120.331C34.1002 119.763 34.257 119.128 34.2521 118.484C34.2521 118.4 34.2521 118.306 34.2391 118.203C34.2262 118.099 34.2213 117.991 34.2052 117.879C34.1584 117.601 34.0774 117.329 33.9642 117.071C33.8139 116.738 33.5743 116.453 33.272 116.248C32.9697 116.043 32.6165 115.926 32.2516 115.91C32.0494 115.892 31.8457 115.916 31.6535 115.982C31.4613 116.047 31.285 116.152 31.1358 116.29C30.6226 116.726 30.3352 117.423 30.2738 118.381C30.166 120.075 29.752 121.275 29.0318 121.979C28.778 122.238 28.4674 122.435 28.1246 122.555C27.8469 122.648 27.5556 122.694 27.2626 122.692C26.785 122.706 26.3111 122.605 25.881 122.397C25.4508 122.189 25.0772 121.88 24.7916 121.497C24.205 120.72 23.9004 119.767 23.928 118.795C23.9153 118.211 24.0267 117.632 24.2548 117.095C24.4828 116.558 24.8223 116.076 25.2508 115.68C25.5343 115.411 25.8512 115.179 26.1937 114.991L26.4007 114.886L26.826 116.002L26.7338 116.049C26.4945 116.189 26.2706 116.355 26.0659 116.542C25.7549 116.837 25.5095 117.194 25.3454 117.591C25.1813 117.987 25.1022 118.413 25.1134 118.842C25.1134 119.003 25.1312 119.141 25.1473 119.256C25.1924 119.55 25.2694 119.839 25.377 120.117C25.7381 121.045 26.3667 121.508 27.2626 121.508C27.8976 121.508 28.3725 121.131 28.6873 120.376C28.9309 119.717 29.0668 119.022 29.09 118.319C29.1261 117.658 29.2909 117.009 29.5752 116.411C29.7694 116.027 30.0344 115.684 30.3563 115.399C30.625 115.159 30.9405 114.978 31.2829 114.866C31.6253 114.755 31.9871 114.716 32.3454 114.752C33.3491 114.829 34.127 115.251 34.679 116.016C35.1966 116.739 35.463 117.611 35.4374 118.499L35.431 118.495Z" fill="#1D1D1B"/>
<path d="M32.2353 101.966C33.049 102.373 33.7544 102.967 34.2934 103.7C34.8324 104.433 35.1895 105.284 35.3354 106.182C35.4814 107.079 35.4119 107.999 35.1327 108.865C34.8535 109.731 34.3726 110.518 33.7296 111.162C33.1979 111.7 32.5638 112.126 31.8648 112.416C31.1657 112.705 30.4157 112.852 29.6591 112.847C28.8933 112.848 28.1348 112.696 27.429 112.399C26.7435 112.11 26.1223 111.688 25.6016 111.157C25.0766 110.634 24.659 110.013 24.3726 109.329C24.0656 108.626 23.9086 107.867 23.9117 107.099C23.9064 106.016 24.2141 104.954 24.7979 104.041C25.358 103.15 26.1532 102.43 27.0959 101.961L27.5811 103.093C26.9517 103.422 26.4084 103.894 25.9949 104.471C25.5815 105.048 25.3095 105.714 25.2009 106.415C25.0923 107.117 25.1501 107.834 25.3697 108.509C25.5894 109.184 25.9646 109.798 26.4652 110.301C26.875 110.717 27.3638 111.047 27.9029 111.272C28.4592 111.507 29.0573 111.629 29.6616 111.629C30.2658 111.629 30.8639 111.507 31.4202 111.272C31.9611 111.051 32.4502 110.721 32.8563 110.301C33.2745 109.892 33.6071 109.404 33.8347 108.865C34.1146 108.2 34.2314 107.477 34.1751 106.757C34.1188 106.037 33.8912 105.341 33.5112 104.727C33.0784 104.033 32.4667 103.469 31.7404 103.093L32.2353 101.966Z" fill="#1D1D1B"/>
<path d="M35.2691 90.1139L35.2691 91.2977L28.4769 91.2977C27.5835 91.2977 26.7267 91.6526 26.095 92.2843C25.4632 92.9161 25.1083 93.7729 25.1083 94.6663C25.1083 95.5597 25.4632 96.4165 26.095 97.0482C26.7267 97.68 27.5835 98.0349 28.4769 98.0349L35.2691 98.0349L35.2691 99.2186L18.7383 99.2186L18.7383 98.0349L25.3574 98.0349C24.4313 97.1842 23.9521 96.0614 23.9197 94.6663C23.9206 93.4592 24.4005 92.3018 25.254 91.4482C26.1076 90.5947 27.265 90.1148 28.4721 90.1139L35.2691 90.1139Z" fill="#1D1D1B"/>
<path d="M23.9117 81.8841C23.9094 81.1127 24.0663 80.3491 24.3726 79.6411C24.9534 78.2624 26.0503 77.1655 27.429 76.5846C28.1365 76.2785 28.8996 76.1216 29.6705 76.1237L29.7626 76.1237L29.7626 86.4008C30.3578 86.3959 30.9455 86.267 31.4882 86.0224C32.0166 85.7915 32.4962 85.4622 32.9016 85.0521C33.3051 84.6427 33.6253 84.1588 33.8444 83.6274C34.0811 83.0796 34.2022 82.4889 34.2002 81.8922C34.2048 81.0504 33.9698 80.2248 33.5226 79.5117C33.0896 78.8185 32.4779 78.2549 31.7518 77.88L32.2466 76.7479C33.1873 77.216 33.979 77.9367 34.5333 78.8292C35.1194 79.7409 35.4273 80.8035 35.4195 81.8873C35.4207 82.6533 35.2678 83.4117 34.97 84.1174C34.3935 85.5084 33.2883 86.6136 31.8973 87.19C30.8441 87.635 29.6821 87.7557 28.5599 87.5364C27.4378 87.3172 26.4066 86.768 25.5984 85.9593C25.0752 85.4304 24.658 84.8063 24.3693 84.1206C24.0643 83.4146 23.9085 82.6531 23.9117 81.8841ZM28.5336 77.5032C27.5621 77.754 26.7015 78.3203 26.0868 79.1132C25.4722 79.9062 25.1382 80.8808 25.1375 81.8841C25.1281 82.8958 25.4712 83.8792 26.1078 84.6656C26.7164 85.4529 27.5699 86.0151 28.5336 86.2634L28.5336 77.5032Z" fill="#1D1D1B"/>
<path d="M34.0288 67.889L34.0288 59.4166L35.2692 59.4166L35.2692 69.131L19.3594 69.131L19.3594 67.889L34.0288 67.889Z" fill="#1D1D1B"/>
<path d="M35.4193 51.6396C35.4193 53.1656 34.8131 54.6291 33.7341 55.7082C32.655 56.7873 31.1915 57.3935 29.6654 57.3935C28.1394 57.3935 26.6758 56.7873 25.5968 55.7082C24.5177 54.6291 23.9115 53.1656 23.9115 51.6396C23.9115 49.8229 24.6435 48.2979 26.1076 47.0646L24.0635 47.0646L24.0635 45.8808L35.2592 45.8808L35.2592 47.0646L33.2232 47.0646C34.6873 48.2742 35.4193 49.7992 35.4193 51.6396ZM25.0839 51.6396C25.0725 52.2469 25.1822 52.8503 25.4067 53.4147C25.6312 53.9791 25.966 54.4931 26.3914 54.9266C26.8169 55.3601 27.3245 55.7045 27.8845 55.9395C28.4446 56.1746 29.0459 56.2957 29.6533 56.2957C30.2607 56.2957 30.862 56.1746 31.422 55.9395C31.9821 55.7045 32.4897 55.3601 32.9151 54.9266C33.3406 54.4931 33.6753 53.9791 33.8998 53.4147C34.1243 52.8503 34.2341 52.2469 34.2226 51.6396C34.2261 51.0388 34.1104 50.4432 33.8824 49.8874C33.6544 49.3315 33.3186 48.8263 32.8943 48.4009C32.47 47.9756 31.9656 47.6385 31.4103 47.4091C30.855 47.1797 30.2597 47.0626 29.6589 47.0646C29.058 47.0641 28.4629 47.1822 27.9077 47.4119C27.3524 47.6417 26.8479 47.9787 26.423 48.4036C25.9981 48.8285 25.6611 49.333 25.4313 49.8883C25.2016 50.4435 25.0835 51.0386 25.0839 51.6396ZM20.9908 55.0874C20.9119 55.1729 20.8158 55.2408 20.7087 55.2865C20.6017 55.3322 20.4862 55.3547 20.3698 55.3526C20.2517 55.3555 20.1343 55.3334 20.0253 55.2877C19.9163 55.242 19.8183 55.1737 19.7375 55.0874C19.652 55.0085 19.5842 54.9123 19.5385 54.8053C19.4927 54.6983 19.4702 54.5828 19.4723 54.4664C19.474 54.229 19.5692 54.0019 19.7372 53.8342C19.9052 53.6665 20.1325 53.5717 20.3698 53.5705C20.4861 53.5681 20.6016 53.5903 20.7086 53.6357C20.8156 53.6812 20.9118 53.7488 20.9908 53.8341C21.0767 53.9151 21.1445 54.0132 21.1899 54.1222C21.2354 54.2311 21.2573 54.3484 21.2544 54.4664C21.2569 54.5827 21.2346 54.6981 21.1892 54.8051C21.1437 54.9122 21.0761 55.0084 20.9908 55.0874ZM20.9908 49.4273C20.9118 49.5126 20.8156 49.5802 20.7086 49.6256C20.6016 49.671 20.4861 49.6933 20.3698 49.6909C20.2518 49.6941 20.1344 49.6722 20.0254 49.6268C19.9165 49.5814 19.8183 49.5133 19.7375 49.4273C19.652 49.3483 19.5842 49.2522 19.5385 49.1452C19.4927 49.0381 19.4702 48.9226 19.4723 48.8063C19.474 48.5689 19.5692 48.3418 19.7372 48.1741C19.9052 48.0064 20.1325 47.9116 20.3698 47.9103C20.4861 47.9079 20.6016 47.9302 20.7086 47.9756C20.8156 48.021 20.9118 48.0886 20.9908 48.1739C21.0769 48.2548 21.1448 48.3529 21.1902 48.4619C21.2357 48.5709 21.2575 48.6882 21.2544 48.8063C21.2576 48.9233 21.2356 49.0397 21.1902 49.1476C21.1447 49.2556 21.0768 49.3525 20.9908 49.4321L20.9908 49.4273Z" fill="#1D1D1B"/>
<path d="M23.9116 38.2477L25.0841 38.2477L25.0841 38.2817C25.0905 39.108 25.4224 39.8985 26.008 40.4816C26.5935 41.0647 27.3854 41.3934 28.2117 41.3963L35.2691 41.3963L35.2691 42.5688L24.0507 42.5688L24.0507 41.3963L25.2684 41.3963C24.8452 41.0072 24.5085 40.5333 24.2803 40.0056C24.0365 39.4636 23.9108 38.8759 23.9116 38.2817L23.9116 38.2477Z" fill="#1D1D1B"/>
<path d="M32.2355 26.0153C33.0492 26.4224 33.7546 27.0169 34.2936 27.7499C34.8325 28.4829 35.1897 29.3334 35.3356 30.2315C35.4815 31.1296 35.412 32.0494 35.1328 32.9154C34.8536 33.7813 34.3727 34.5685 33.7297 35.2122C32.9213 36.0232 31.8893 36.5745 30.7658 36.7958C29.6423 37.017 28.4783 36.8981 27.4227 36.4542C26.7375 36.1651 26.1164 35.7429 25.5953 35.2122C25.0706 34.6889 24.6531 34.0682 24.3663 33.3848C24.0594 32.6815 23.9024 31.922 23.9054 31.1547C23.8996 30.0712 24.2074 29.0092 24.7916 28.0966C25.3521 27.2052 26.1471 26.4852 27.0896 26.0153L27.5747 27.1474C26.9454 27.4757 26.4021 27.9475 25.9886 28.5245C25.5751 29.1015 25.3031 29.7676 25.1945 30.4691C25.0859 31.1706 25.1438 31.8879 25.3634 32.5629C25.583 33.2379 25.9583 33.8519 26.4589 34.3551C27.0951 34.9906 27.9062 35.4222 28.7886 35.595C29.6711 35.7678 30.585 35.674 31.4139 35.3255C31.9544 35.1045 32.4433 34.7741 32.85 34.3551C33.2686 33.9458 33.6012 33.457 33.8284 32.9175C34.1084 32.2519 34.2251 31.5289 34.1688 30.809C34.1126 30.0891 33.8849 29.3931 33.505 28.7791C33.0761 28.082 32.4664 27.5142 31.7406 27.1361L32.2355 26.0153Z" fill="#1D1D1B"/>
<path d="M35.2691 14.1646L35.2691 15.3484L28.4769 15.3484C28.0284 15.3386 27.5825 15.4184 27.1653 15.5833C26.7481 15.7481 26.3681 15.9946 26.0474 16.3083C25.7268 16.622 25.472 16.9966 25.2981 17.41C25.1241 17.8235 25.0345 18.2676 25.0345 18.7162C25.0345 19.1648 25.1241 19.6088 25.2981 20.0223C25.472 20.4358 25.7268 20.8104 26.0474 21.1241C26.3681 21.4378 26.7481 21.6843 27.1653 21.8491C27.5825 22.014 28.0284 22.0938 28.4769 22.084L35.2691 22.084L35.2691 23.2677L18.7383 23.2677L18.7383 22.084L25.3574 22.084C24.4313 21.2333 23.9521 20.111 23.9197 18.717C23.9197 18.1192 24.0375 17.5272 24.2662 16.9749C24.495 16.4226 24.8303 15.9207 25.2531 15.498C25.6758 15.0752 26.1776 14.7399 26.73 14.5111C27.2823 14.2824 27.8742 14.1646 28.4721 14.1646L35.2691 14.1646Z" fill="#1D1D1B"/>
<path d="M23.9117 5.93324C23.9096 5.16237 24.0665 4.39935 24.3726 3.69185C24.9539 2.31315 26.0506 1.21589 27.429 0.633787C28.1369 0.328967 28.8998 0.172657 29.6704 0.174517L29.7626 0.174517L29.7626 10.4516C30.3579 10.4461 30.9456 10.3167 31.4882 10.0716C32.0166 9.84077 32.4963 9.51147 32.9016 9.10126C33.3044 8.69129 33.6245 8.20758 33.8444 7.67655C34.081 7.12819 34.2021 6.53696 34.2002 5.93972C34.2048 5.09851 33.9697 4.27337 33.5226 3.56085C33.0904 2.86709 32.4785 2.30325 31.7518 1.92914L32.2466 0.797123C33.1984 1.27689 33.9987 2.01091 34.5588 2.9178C35.1189 3.82468 35.4168 4.86898 35.4195 5.93486C35.421 6.70087 35.2681 7.45932 34.9699 8.16492C34.6854 8.85423 34.2675 9.48054 33.7402 10.0078C33.2129 10.5351 32.5866 10.953 31.8973 11.2375C30.8441 11.6821 29.6824 11.8026 28.5604 11.5837C27.4384 11.3648 26.4072 10.8164 25.5984 10.0085C25.0748 9.47927 24.6576 8.85454 24.3693 8.16816C24.0642 7.46274 23.9084 6.70181 23.9117 5.93324ZM28.5336 1.55396C27.5624 1.80471 26.702 2.37079 26.0873 3.16339C25.4727 3.95599 25.1386 4.93024 25.1375 5.93324C25.1279 6.945 25.471 7.92851 26.1078 8.71476C26.7164 9.50208 27.5699 10.0643 28.5336 10.3125L28.5336 1.55396Z" fill="#1D1D1B"/>
</svg>
